<svg height="505pt" viewBox="0 -6 505.41542 505" width="505pt" xmlns="http://www.w3.org/2000/svg"><path d="m217.101562 35.207031c-30.46875.136719-55.09375 24.878907-55.085937 55.34375.003906 30.46875 24.640625 55.199219 55.109375 55.320313.007812 0 .066406.027344.066406.011718 30.5625-.019531 55.320313-24.808593 55.300782-55.371093-.015626-30.5625-24.808594-55.324219-55.371094-55.304688zm.0625 20c9.355469.011719 18.320313 3.753907 24.902344 10.402344 10.074219 10.140625 13.09375 25.332031 7.664063 38.554687-5.429688 13.222657-18.253907 21.910157-32.550781 22.042969h-.0625c-19.605469-.007812-35.492188-15.90625-35.484376-35.511719.003907-19.605468 15.90625-35.496093 35.511719-35.488281zm0 0"/><path d="m345.699219.207031c-30.453125 0-55.21875 25.046875-55.199219 55.546875.007812 30.441406 24.777344 55.453125 55.214844 55.453125h.355468c.132813 0 .265626-.042969.398438-.042969 14.601562-.113281 28.558594-6.035156 38.789062-16.453124 10.230469-10.417969 15.894532-24.480469 15.742188-39.082032-.035156-30.535156-24.738281-55.304687-55.273438-55.421875zm.066406 20c19.417969 0 35.234375 16.207031 35.234375 35.621094v.113281c.0625 9.277344-3.554688 18.199219-10.050781 24.816406-6.464844 6.65625-15.34375 10.421876-24.621094 10.449219h-.578125c-.007812 0-.015625-.042969-.023438-.042969-19.488281-.152343-35.207031-15.996093-35.203124-35.488281.007812-19.492187 15.738281-35.328125 35.226562-35.46875zm0 0"/><path d="m88.507812 111.207031h.03125c30.398438 0 54.660157-24.230469 55.238282-55.109375 0-.0625 0-.394531 0-.457031-.035156-30.539063-24.734375-55.308594-55.269532-55.433594h-.023437c-30.457031 0-55.21875 25.007813-55.207031 55.511719-.007813 30.546875 24.683594 55.351562 55.230468 55.488281zm.023438-91h.019531c19.464844.144531 35.179688 15.941407 35.226563 35.40625-.417969 19.828125-15.878906 35.59375-35.246094 35.59375h-.023438c-9.347656.011719-18.3125-3.714843-24.898437-10.347656-10.082031-10.152344-13.101563-25.359375-7.664063-38.59375 5.441407-13.238281 18.277344-21.925781 32.585938-22.058594zm0 0"/><path d="m434 233.199219v-38.222657c.113281-20.285156-7.851562-39.777343-22.132812-54.179687-14.28125-14.40625-33.707032-22.53125-53.992188-22.589844h-23.085938c-29.835937.121094-56.972656 17.300781-69.84375 44.21875-11.101562-6.027343-23.527343-9.195312-36.15625-9.21875h-23.066406c-12.636718.007813-25.074218 3.140625-36.207031 9.121094-12.753906-26.871094-39.804687-44.03125-69.546875-44.121094h-22.984375c-42.339844 0-76.734375 34.191407-76.984375 76.53125v72.332031c.183594 5.628907 4.785156 10.105469 10.414062 10.136719h118.585938v25.109375c.007812 2.640625 1.074219 5.171875 2.953125 7.03125 1.882813 1.855469 4.425781 2.886719 7.070313 2.859375h94.804687c-4.398437 13.691407-6.617187 27.988281-6.582031 42.367188 0 76.738281 62.429687 139.199219 139.167968 139.199219 76.738282 0 139-62.417969 139-139.15625.125-50.46875-27.242187-97.003907-71.414062-121.417969zm-99.210938-94.992188h23.070313c14.976563.054688 29.320313 6.070313 39.855469 16.71875 10.535156 10.648438 16.394531 25.054688 16.285156 40.035157v29c-35.53125-13.0625-74.863281-11.011719-108.84375 5.679687-.042969-20.109375-8.054688-39.382813-22.28125-53.597656-.464844-.46875-.929688-.941407-1.402344-1.394531 8.710938-21.859376 29.789063-36.265626 53.316406-36.441407zm-314.789062 119v-62.453125c.242188-31.304687 25.691406-56.554687 57-56.546875h22.945312c23.421876.128907 44.402344 14.503907 52.980469 36.300781-.464843.441407-.945312.882813-1.402343 1.335938-14.441407 14.296875-22.554688 33.789062-22.523438 54.109375v27.253906zm129 35v-62.199219c.035156-31.28125 25.328125-56.660156 56.609375-56.800781h23.164063c14.996093.03125 29.351562 6.082031 39.847656 16.792969 10.589844 10.691406 16.484375 25.160156 16.378906 40.207031v11.433594c-18.113281 13.238281-32.847656 30.5625-43 50.566406zm217.414062 181.589844c-65.816406 0-119.167968-53.355469-119.167968-119.171875s53.355468-119.167969 119.167968-119.167969c65.816407 0 119.171876 53.355469 119.171876 119.167969-.074219 65.789062-53.386719 119.097656-119.171876 119.171875zm0 0"/><path d="m434 325.207031h-39v-39c0-5.523437-4.476562-10-10-10h-40c-5.523438 0-10 4.476563-10 10v39h-39c-5.523438 0-10 4.476563-10 10v40c0 5.523438 4.476562 10 10 10h39v39c0 5.523438 4.476562 10 10 10h40c5.523438 0 10-4.476562 10-10v-39h39c5.523438 0 10-4.476562 10-10v-40c0-5.523437-4.476562-10-10-10zm-10 40h-39c-5.523438 0-10 4.476563-10 10v39h-20v-39c0-5.523437-4.476562-10-10-10h-39v-20h39c5.523438 0 10-4.476562 10-10v-39h20v39c0 5.523438 4.476562 10 10 10h39zm0 0"/></svg>