<?xml version="1.0" encoding="iso-8859-1"?>
<!-- Generator: Adobe Illustrator 21.0.0, SVG Export Plug-In . SVG Version: 6.00 Build 0)  -->
<svg xmlns="http://www.w3.org/2000/svg" xmlns:xlink="http://www.w3.org/1999/xlink" version="1.1" id="Capa_1" x="0px" y="0px" viewBox="0 0 512 512" style="enable-background:new 0 0 512 512;" xml:space="preserve" width="512" height="512">
<g>
	<path style="fill-rule:evenodd;clip-rule:evenodd;" d="M502,1.335H71.235c-5.523,0-10,4.477-10,10v111.539   c-27.319,13.546-45.246,41.882-45.246,72.571v65.386c0,5.523,4.477,10,10,10c5.523,0,10-4.477,10-10v-65.386   c0-19.6,9.723-37.934,25.246-49.275v84.319c0,4.044,2.437,7.691,6.173,9.239c3.737,1.548,8.038,0.693,10.897-2.168   c0,0,4.504-4.504,4.505-4.505c5.727-5.727,13.917-8.726,21.985-8.191c0.019,0.001,0.038,0.001,0.057,0.002   c0.087,0.006,0.174,0,0.261,0.004c2.798,0.125,5.515-0.927,7.497-2.909c0,0,32.621-32.62,32.639-32.639   c4.63-4.63,12.064-5.712,17.838-2.639c1.298,0.691,2.498,1.576,3.563,2.642c5.393,5.39,5.844,14.387,1.004,20.291   c-0.315,0.383-0.65,0.753-1.005,1.108l-32.638,32.639c-2.044,2.045-3.104,4.875-2.905,7.76c0.568,8.233-2.416,16.267-8.189,22.039   l-4.815,4.815c-2.86,2.86-3.716,7.161-2.168,10.898c1.547,3.737,5.194,6.174,9.239,6.174h71.147v32.41   c0,16.509-12.884,30.538-29.333,31.938c-5.175,0.44-9.152,4.77-9.152,9.964v26.857H35.989v-55.386c0-5.523-4.477-10-10-10   c-5.523,0-10,4.477-10,10v55.386H10c-5.523,0-10,4.477-10,10v94.448c0,5.523,4.477,10,10,10h173.825c5.523,0,10-4.477,10-10   v-94.448c0-5.523-4.477-10-10-10h-5.988v-18.518c22.189-6.059,38.484-26.581,38.484-50.241v-32.41H502c5.523,0,10-4.477,10-10   V11.335C512,5.812,507.523,1.335,502,1.335z M173.825,490.665H20v-74.448h5.97c0.007,0,0.013,0.001,0.02,0.001h141.848   c0.006,0,0.013-0.001,0.02-0.001h5.969V490.665z M491.07,21.335c-2.298,12.331-8.8,24.129-18.871,33.986   c-11.781,11.53-26.684,18.414-39.867,18.414H140.903c-13.183,0-28.086-6.884-39.867-18.414   c-10.071-9.856-16.573-21.655-18.871-33.986H491.07z M492,275.048H206.321h-60.377c3.209-6.33,5.007-13.34,5.212-20.545   l29.635-29.636c1.654-1.654,3.123-3.446,4.395-5.35c3.817-5.713,5.867-12.439,5.867-19.493c0-9.404-3.644-18.227-10.262-24.844   c-4.481-4.48-10.165-7.699-16.315-9.227c-12.073-3-24.464,0.71-33.369,9.227l-29.638,29.637c-7.144,0.2-14.016,1.929-20.235,5.031   V129.36V63.392c1.822,2.136,3.759,4.213,5.812,6.223c15.432,15.104,35.565,24.121,53.856,24.121h291.429   c18.291,0,38.424-9.017,53.856-24.121c2.053-2.009,3.989-4.086,5.811-6.223V275.048z"/>
	<path style="fill-rule:evenodd;clip-rule:evenodd;" d="M451.179,171.161H304.827c-5.523,0-10,4.477-10,10v53.064   c0,5.523,4.477,10,10,10h146.352c5.523,0,10-4.477,10-10v-53.064C461.179,175.638,456.702,171.161,451.179,171.161z    M441.179,224.226H314.827v-33.064h126.352V224.226z"/>
	<path style="fill-rule:evenodd;clip-rule:evenodd;" d="M25.989,310.831c5.508,0,10.001-4.492,10.001-10c0-5.508-4.493-10-10.001-10   s-10,4.492-10,10C15.989,306.339,20.482,310.831,25.989,310.831z"/>
</g>















</svg>
